<svg width="172" height="103" viewBox="0 0 172 103" fill="none" xmlns="http://www.w3.org/2000/svg">
<path d="M159.437 96.5854L131.724 15.1645L151.029 1.91723L149.565 0L0 102.969L172 103V96.5854H159.437Z" fill="black"/>
<path d="M86.3525 92.9345C78.0517 92.9345 71.3105 83.9194 71.3105 72.8546C71.3105 61.7897 78.0517 52.7747 86.3525 52.7747C94.632 52.7747 101.395 61.7897 101.395 72.8546C101.395 83.9194 94.632 92.9345 86.3525 92.9345Z" fill="white"/>
<path d="M122.184 85.0004C113.552 85.0004 106.512 75.5366 106.512 63.9211C106.512 52.3056 113.552 42.8418 122.184 42.8418C130.816 42.8418 137.856 52.3056 137.856 63.9211C137.856 75.5366 130.816 85.0004 122.184 85.0004Z" fill="white"/>
<path d="M86.3527 64.9409C83.0302 64.9409 80.3594 68.4898 80.3594 72.8546C80.3594 77.2193 83.0516 80.7682 86.3527 80.7682C89.6752 80.7682 92.346 77.2193 92.346 72.8546C92.346 68.4694 89.6538 64.9409 86.3527 64.9409Z" fill="black"/>
<path d="M122.184 55.7219C118.723 55.7219 115.913 59.4034 115.913 63.9211C115.913 68.4389 118.712 72.1203 122.184 72.1203C125.646 72.1203 128.455 68.4389 128.455 63.9211C128.455 59.4034 125.646 55.7219 122.184 55.7219Z" fill="black"/>
</svg>
